<?xml version="1.0" encoding="UTF-8"?>
<svg id="_Слой_1" data-name="Слой 1" xmlns="http://www.w3.org/2000/svg" xmlns:xlink="http://www.w3.org/1999/xlink" viewBox="0 0 640 640">
  <defs>
    <style>
      .cls-1 {
        fill: url(#_Безымянный_градиент_92);
      }

      .cls-1, .cls-2, .cls-3 {
        stroke-width: 0px;
      }

      .cls-2 {
        fill: #fff;
      }

      .cls-3 {
        fill: url(#_Безымянный_градиент_95);
      }
    </style>
    <linearGradient id="_Безымянный_градиент_95" data-name="Безымянный градиент 95" x1="67.47" y1="748.4" x2="724.86" y2="-366.82" gradientUnits="userSpaceOnUse">
      <stop offset="0" stop-color="#6886f2"/>
      <stop offset=".43" stop-color="#6accef"/>
      <stop offset=".82" stop-color="#6aefe8"/>
      <stop offset="1" stop-color="#6aefc6"/>
    </linearGradient>
    <linearGradient id="_Безымянный_градиент_92" data-name="Безымянный градиент 92" x1="67.54" y1="748.43" x2="724.93" y2="-366.78" gradientUnits="userSpaceOnUse">
      <stop offset="0" stop-color="#6886f2"/>
      <stop offset=".38" stop-color="#6accef"/>
      <stop offset=".7" stop-color="#6aefe8"/>
      <stop offset="1" stop-color="#6aefc6"/>
    </linearGradient>
  </defs>
  <circle id="_ЦВЕТ" data-name="ЦВЕТ" class="cls-3" cx="320" cy="320" r="320"/>
  <path id="_обводка" data-name="обводка" class="cls-2" d="m489.96,466.37c-1.9-.06-3.81-.14-5.74-.25-40.28,45.48-99.12,74.16-164.67,74.16-115.51,0-210.21-89.05-219.2-202.24-11.79-8.07-22.45-16.19-31.86-24.25-.06,2.19-.09,4.39-.09,6.59,0,138.71,112.44,251.15,251.15,251.15,84.36,0,159-41.58,204.54-105.38-10.68.59-22.08.66-34.13.22ZM319.55,69.23c-85.36,0-160.77,42.58-206.15,107.66,12.3-.81,25.62-.93,39.81-.35,40.32-46.59,99.89-76.06,166.34-76.06,115.28,0,209.83,88.7,219.14,201.57,11.75,7.86,22.44,15.78,31.95,23.66.04-1.77.06-3.55.06-5.33,0-138.71-112.44-251.15-251.15-251.15Z"/>
  <g id="_сферы" data-name="сферы">
    <circle class="cls-2" cx="270.17" cy="505.85" r="10.81" transform="translate(-297.58 586.72) rotate(-70)"/>
    <path class="cls-2" d="m389.61,181.2c-13.39-6.94-27.95-11.95-43.29-14.67,6.72-6.95,17.15-9.71,26.82-6.19,9.3,3.39,15.41,11.66,16.47,20.86Z"/>
    <path class="cls-2" d="m342.37,171.89c16.79,2.52,32.69,7.77,47.22,15.3-.23,1.86-.67,3.71-1.34,5.54-4.78,13.12-19.28,19.88-32.39,15.1-13.12-4.77-19.88-19.27-15.11-32.38.45-1.25,1-2.44,1.62-3.56Z"/>
    <path class="cls-2" d="m339.23,142.94c-2.31,6.35-9.34,9.63-15.69,7.32s-9.63-9.34-7.32-15.69c2.31-6.35,9.34-9.63,15.69-7.32s9.63,9.34,7.32,15.69Z"/>
    <path class="cls-2" d="m216.73,442.36c12.14,11.1,26.08,20.25,41.34,26.97-6.73,6.61-16.91,9.17-26.36,5.73-13.12-4.78-19.88-19.28-15.1-32.39.04-.1.08-.21.12-.31Z"/>
    <path class="cls-2" d="m264.1,459.95c-.53,1.45-1.18,2.83-1.93,4.11-15.84-6.42-30.35-15.44-43.01-26.53,6.27-9.66,18.55-14.07,29.83-9.97,13.12,4.78,19.88,19.28,15.11,32.39Z"/>
  </g>
  <path id="_нк" data-name="нк" class="cls-2" d="m470.42,345.25c-.36,2.45-.78,4.89-1.26,7.3-.14.69-.28,1.38-.43,2.06-.35,1.67-.73,3.32-1.14,4.97-5.95,23.99-17.58,45.74-33.39,63.74-3.88,4.41-7.99,8.58-12.35,12.52-24.19,21.89-55.44,36.13-89.92,38.9-4.08.32-8.22.49-12.38.49-2.33,0-4.65-.05-6.95-.16-17.35-.77-33.95-4.45-49.32-10.56-.37-.15-.74-.3-1.11-.45-15.84-6.42-30.35-15.44-43.01-26.53-3.89-3.39-7.6-6.99-11.12-10.76-24.74-26.49-40.15-61.8-40.98-100.71-.03-1.11-.04-2.23-.04-3.35,0-5.47.29-10.87.86-16.21.27-2.54.6-5.07,1-7.57,4.08-26.06,14.75-49.93,30.25-69.85.67-.85,1.34-1.7,2.03-2.54,37.11,7.35,51.51,5.72,81.92,27.22,65.85,46.56,60.43,84.14,114.99,97.68,29.41,7.29,50.56,1.22,71.08,1.11.48-2.41.9-4.85,1.27-7.3Z"/>
  <path id="_пояс" data-name="пояс" class="cls-2" d="m570.24,335.59c-9.15-7.89-19.51-15.83-30.95-23.74-47.03-32.5-112.32-64.41-187.18-89.21-60.7-20.12-119.14-32.72-169.53-37.83-.79-.09-1.57-.16-2.35-.24-.17-.02-.35-.03-.52-.05-10.88-1.05-21.36-1.75-31.41-2.09-13.93-.48-27-.27-39.06.61-44.17,3.23-74.8,15.55-84.12,36.96-.43.98-.81,1.97-1.15,2.99-1.03,3.11-1.61,6.33-1.76,9.64-1.02,21.56,16.06,47.24,46.59,73.57,9.18,7.91,19.57,15.88,31.06,23.82,47.02,32.49,112.3,64.39,187.13,89.18,68.17,22.59,133.49,35.71,187.77,39.38,1.07.07,2.14.14,3.2.21,4.07.25,8.07.45,12,.58,13.96.51,27.06.33,39.16-.53,40.25-2.83,69.37-13.17,81.54-31.01,1.92-2.81,3.42-5.8,4.47-8.98.86-2.6,1.41-5.28,1.65-8.03,1.99-21.9-15.2-48.23-46.54-75.23Zm-41.48,48.33c-.23,2.01-.65,3.97-1.29,5.89-.79,2.37-1.87,4.61-3.25,6.73-5.4,8.33-15.23,14.67-28.54,18.99-1.02.33-2.06.65-3.13.96-.09.03-.18.05-.27.07-42.64,12.24-117.45,5.44-197.44-21.06-107.14-35.5-185.72-93.79-184.69-134.89.07-2.96.55-5.82,1.47-8.58.34-1.02.73-2.02,1.19-3,6.49-14.08,24.39-23.19,49.98-27.23,1.02-.16,2.05-.31,3.1-.45,43.97-6.1,109.23,2.08,178.37,24.99,109.49,36.28,189.16,96.36,184.5,137.58Z"/>
  <path id="_ЦВЕТ-2" data-name="ЦВЕТ" class="cls-1" d="m505.09,462.65c-4.97,0-10.05-.09-15.24-.28-3.74-.12-7.69-.31-12.07-.58l-3.21-.21c-56.91-3.85-122.1-17.51-188.52-39.53-72.2-23.92-138.92-55.72-187.89-89.56-11.53-7.97-22.07-16.05-31.31-24.01-32.2-27.77-48.67-54.04-47.63-75.98.16-3.59.8-7.11,1.91-10.44.38-1.13.79-2.19,1.25-3.25,9.53-21.9,39.5-35.3,86.65-38.75,12.19-.89,25.44-1.1,39.38-.62,10.03.34,20.66,1.05,31.6,2.1l.23.02c.12.01.24.02.36.03l.75.07c.53.05,1.06.1,1.59.17,52.4,5.31,111.24,18.44,170.13,37.96,72.21,23.92,138.96,55.74,187.94,89.59,11.53,7.97,22.03,16.03,31.2,23.94,33.15,28.56,49.6,55.45,47.57,77.77-.26,2.96-.86,5.89-1.79,8.7-1.12,3.39-2.75,6.67-4.84,9.73-12.38,18.15-41.36,29.33-83.81,32.31-7.68.55-15.79.82-24.24.82ZM134.04,185.18c-8.57,0-16.8.28-24.58.85-44.15,3.23-73.12,15.72-81.59,35.17-.4.9-.74,1.79-1.06,2.74-.93,2.8-1.47,5.78-1.61,8.83-.95,20.04,14.8,44.64,45.55,71.16,9.08,7.83,19.45,15.78,30.81,23.62,48.51,33.52,114.7,65.06,186.37,88.8,65.95,21.85,130.62,35.42,187.03,39.23l3.2.21c4.31.26,8.21.45,11.9.58,13.8.5,26.87.33,38.85-.52,40.55-2.85,67.96-13.12,79.27-29.71,1.78-2.6,3.15-5.37,4.1-8.23.78-2.37,1.29-4.84,1.51-7.35,1.85-20.32-13.89-45.46-45.51-72.7h0c-9.01-7.77-19.34-15.69-30.7-23.54-48.53-33.53-114.73-65.08-186.42-88.83-58.48-19.39-116.88-32.42-168.89-37.69-.54-.06-1.04-.11-1.53-.16l-1.03-.1c-.12-.01-.24-.02-.36-.03-10.75-1.04-21.25-1.74-31.16-2.07-4.81-.17-9.54-.25-14.16-.25Zm308.39,240.28c-42.29,0-94.99-9.38-148.53-27.11-51.85-17.18-99.35-40.54-133.74-65.77-34.71-25.47-53.53-51.05-53.01-72.04.08-3.27.62-6.45,1.62-9.45.4-1.19.83-2.28,1.32-3.33,6.72-14.58,24.78-24.59,52.23-28.92,1.05-.16,2.1-.32,3.17-.46,45.86-6.36,113.05,3.03,179.71,25.12,53.07,17.59,101.34,41.52,135.91,67.38,35.03,26.21,53.01,52.27,50.63,73.38h0c-.26,2.25-.74,4.44-1.42,6.5-.87,2.6-2.07,5.1-3.58,7.42-5.68,8.76-15.82,15.56-30.13,20.21-1.05.34-2.12.67-3.22.99-.08.03-.21.06-.36.1-14.06,4.02-31.25,5.99-50.6,5.99Zm-245.96-203.04c-10.82,0-20.93.63-30.16,1.91-1.04.14-2.05.29-3.05.44-25.37,4-41.87,12.83-47.72,25.52-.4.85-.75,1.73-1.07,2.69-.81,2.43-1.25,5.02-1.32,7.7-.48,18.97,17.48,42.78,50.56,67.06,33.9,24.87,80.8,47.93,132.08,64.92,77,25.51,151.98,33.57,195.67,21.02l.19-.05c1.11-.32,2.12-.63,3.11-.95,12.97-4.21,22.03-10.19,26.95-17.77,1.23-1.89,2.21-3.93,2.92-6.05.56-1.69.94-3.42,1.15-5.28h0c2.14-18.9-15-43.02-48.26-67.9-34.07-25.49-81.73-49.1-134.2-66.49-52.34-17.34-104.89-26.77-146.85-26.77Z"/>
  <path id="_вк" data-name="вк" class="cls-2" d="m472.08,322.71c0,7.66-.57,15.19-1.66,22.54-.37,2.45-.79,4.89-1.27,7.3-20.52.11-41.67,6.18-71.08-1.11-54.56-13.54-49.14-51.12-114.99-97.68-30.41-21.5-44.81-19.87-81.92-27.22,1.42-1.75,2.89-3.47,4.4-5.15,5.49-6.19,11.49-11.93,17.93-17.16,2.04-1.66,4.13-3.27,6.26-4.82,2.85-2.08,5.77-4.06,8.76-5.94,1.97-1.24,3.97-2.43,6-3.57,3.35-1.91,6.79-3.69,10.3-5.34,3.22-1.5,6.49-2.9,9.83-4.19,1.66-.65,3.34-1.26,5.04-1.85,15.63-5.4,32.4-8.33,49.87-8.33,7.75,0,15.37.58,22.82,1.7,16.79,2.52,32.69,7.77,47.22,15.3,43.85,22.71,75.27,66.06,81.39,117.19.61,5.04.97,10.17,1.07,15.35.02.99.03,1.98.03,2.98Z"/>
</svg>